<?xml version="1.0" encoding="UTF-8" standalone="no"?>
<svg
   xmlns:dc="http://purl.org/dc/elements/1.1/"
   xmlns:cc="http://creativecommons.org/ns#"
   xmlns:rdf="http://www.w3.org/1999/02/22-rdf-syntax-ns#"
   xmlns:svg="http://www.w3.org/2000/svg"
   xmlns="http://www.w3.org/2000/svg"
   xmlns:xlink="http://www.w3.org/1999/xlink"
   xmlns:sodipodi="http://sodipodi.sourceforge.net/DTD/sodipodi-0.dtd"
   xmlns:inkscape="http://www.inkscape.org/namespaces/inkscape"
   width="570"
   height="512"
   id="svg2"
   version="1.1"
   inkscape:version="0.48.3.1 r9886"
   sodipodi:docname="earth_bw.svg">
  <metadata
     id="metadata44">
    <rdf:RDF>
      <cc:Work
         rdf:about="">
        <dc:format>image/svg+xml</dc:format>
        <dc:type
           rdf:resource="http://purl.org/dc/dcmitype/StillImage" />
        <dc:title></dc:title>
      </cc:Work>
    </rdf:RDF>
  </metadata>
  <sodipodi:namedview
     pagecolor="#ffffff"
     bordercolor="#666666"
     borderopacity="1"
     objecttolerance="10"
     gridtolerance="10"
     guidetolerance="10"
     inkscape:pageopacity="0"
     inkscape:pageshadow="2"
     inkscape:window-width="1438"
     inkscape:window-height="685"
     id="namedview42"
     showgrid="false"
     inkscape:zoom="1.3037281"
     inkscape:cx="226.25853"
     inkscape:cy="269.71195"
     inkscape:window-x="126"
     inkscape:window-y="88"
     inkscape:window-maximized="0"
     inkscape:current-layer="svg2" />
  <defs
     id="defs4">
    <linearGradient
       id="linearGradient37658">
      <stop
         stop-color="#2f7aff"
         offset="0"
         id="stop37660" />
      <stop
         stop-color="#0000b3"
         offset="1"
         id="stop37662" />
    </linearGradient>
    <linearGradient
       id="linearGradient20137">
      <stop
         stop-color="#00bf00"
         offset="0"
         id="stop20139" />
      <stop
         stop-color="#007500"
         offset="1"
         id="stop20141" />
    </linearGradient>
    <radialGradient
       xlink:href="#linearGradient20137"
       r="188.61865"
       id="radialGradient20143"
       gradientUnits="userSpaceOnUse"
       gradientTransform="scale(0.893959,1.118620)"
       fy="298.37747"
       fx="205.17723"
       cy="297.1124"
       cx="202.06305" />
    <radialGradient
       xlink:href="#linearGradient37658"
       r="112.3373"
       id="radialGradient37664"
       gradientUnits="userSpaceOnUse"
       gradientTransform="scale(0.806632,1.239722)"
       fy="270.08732"
       fx="221.61394"
       cy="270.08732"
       cx="221.61394" />
    <radialGradient
       xlink:href="#linearGradient20137"
       r="188.61865"
       id="radialGradient1902"
       gradientUnits="userSpaceOnUse"
       gradientTransform="scale(0.893959,1.118620)"
       fy="298.37747"
       fx="205.17723"
       cy="297.1124"
       cx="202.06305" />
    <radialGradient
       xlink:href="#linearGradient20137"
       r="188.61865"
       id="radialGradient1904"
       gradientUnits="userSpaceOnUse"
       gradientTransform="scale(0.893959,1.118620)"
       fy="298.37747"
       fx="205.17723"
       cy="297.1124"
       cx="202.06305" />
    <radialGradient
       xlink:href="#linearGradient20137"
       r="188.61865"
       id="radialGradient1906"
       gradientUnits="userSpaceOnUse"
       gradientTransform="scale(0.893959,1.118620)"
       fy="298.37747"
       fx="205.17723"
       cy="297.1124"
       cx="202.06305" />
    <radialGradient
       xlink:href="#linearGradient20137"
       r="188.61865"
       id="radialGradient1908"
       gradientUnits="userSpaceOnUse"
       gradientTransform="scale(0.893959,1.118620)"
       fy="298.37747"
       fx="205.17723"
       cy="297.1124"
       cx="202.06305" />
    <radialGradient
       xlink:href="#linearGradient20137"
       r="188.61865"
       id="radialGradient1910"
       gradientUnits="userSpaceOnUse"
       gradientTransform="scale(0.893959,1.118620)"
       fy="298.37747"
       fx="205.17723"
       cy="297.1124"
       cx="202.06305" />
    <radialGradient
       xlink:href="#linearGradient20137"
       r="188.61865"
       id="radialGradient1912"
       gradientUnits="userSpaceOnUse"
       gradientTransform="scale(0.893959,1.118620)"
       fy="298.37747"
       fx="205.17723"
       cy="297.1124"
       cx="202.06305" />
    <radialGradient
       xlink:href="#linearGradient20137"
       r="188.61865"
       id="radialGradient1914"
       gradientUnits="userSpaceOnUse"
       gradientTransform="scale(0.893959,1.118620)"
       fy="298.37747"
       fx="205.17723"
       cy="297.1124"
       cx="202.06305" />
    <radialGradient
       xlink:href="#linearGradient20137"
       r="188.61865"
       id="radialGradient1916"
       gradientUnits="userSpaceOnUse"
       gradientTransform="scale(0.893959,1.118620)"
       fy="298.37747"
       fx="205.17723"
       cy="297.1124"
       cx="202.06305" />
    <radialGradient
       xlink:href="#linearGradient20137"
       r="188.61865"
       id="radialGradient1918"
       gradientUnits="userSpaceOnUse"
       gradientTransform="scale(0.893959,1.118620)"
       fy="298.37747"
       fx="205.17723"
       cy="297.1124"
       cx="202.06305" />
    <radialGradient
       xlink:href="#linearGradient20137"
       r="188.61865"
       id="radialGradient1920"
       gradientUnits="userSpaceOnUse"
       gradientTransform="scale(0.893959,1.118620)"
       fy="298.37747"
       fx="205.17723"
       cy="297.1124"
       cx="202.06305" />
  </defs>
  <desc
     id="desc24">wmf2svg</desc>
  <path
     style="fill:#1a1a1a;stroke:none;stroke-width:0.54237287999999995;stroke-opacity:1"
     d="m 227.24102,312.42726 c -4.16917,-1.60968 -4.17013,-1.61052 -5.66786,-4.94869 -2.49013,-5.55002 -6.91611,-8.43555 -20.09858,-13.10335 -6.71561,-2.37794 -7.61402,-2.85986 -10.84746,-5.81866 -1.93898,-1.7743 -4.62373,-3.78696 -5.9661,-4.47257 -2.9248,-1.49385 -4.43337,-3.75573 -3.73505,-5.60017 0.65672,-1.73455 0.22471,-3.32401 -2.53074,-9.31114 -1.30424,-2.8339 -2.88001,-7.10902 -3.5017,-9.50028 -1.45438,-5.59407 -1.62851,-5.86318 -3.36638,-5.20244 l -1.38286,0.52577 0.94909,4.5122 c 0.52199,2.48172 1.144,5.24441 1.38223,6.13933 0.38703,1.45389 0.34027,1.55063 -0.43915,0.90867 -0.93415,-0.76941 -2.97666,-6.61626 -6.04944,-17.31709 -1.88137,-6.55176 -1.90084,-6.72426 -1.37767,-12.20339 0.29187,-3.05673 0.77051,-7.02209 1.06364,-8.81192 0.63695,-3.88914 4.50001,-12.10466 7.20674,-15.3265 1.74193,-2.07343 1.88885,-2.48894 1.43706,-4.06422 -0.61859,-2.15692 -0.61554,-7.52098 0.006,-10.43979 0.25407,-1.19322 1.24748,-5.09831 2.20758,-8.67797 1.37825,-5.1387 1.67985,-7.14064 1.43306,-9.51224 -0.64802,-6.22748 -1.79936,-7.43462 -10.11592,-10.60618 -3.92273,-1.49595 -4.00257,-1.56139 -2.23867,-1.83507 1.60853,-0.24957 1.95383,-0.61085 2.86317,-2.99566 0.56872,-1.49153 1.77572,-3.35362 2.68221,-4.13798 1.43757,-1.2439 1.90334,-1.36683 3.6453,-0.96209 3.04796,0.70817 3.20596,0.64546 4.23177,-1.67959 0.52645,-1.19322 1.33733,-2.19666 1.80196,-2.22986 2.21716,-0.15844 4.84542,-0.454 6.88638,-0.77441 1.30952,-0.20558 2.71216,-0.10243 3.3661,0.24755 1.26836,0.6788 2.23922,3.60552 2.26386,6.82452 0.0265,3.46024 3.0451,6.79951 13.40541,14.82942 2.75505,2.13534 5.23063,3.88244 5.50129,3.88244 0.27066,0 0.64026,-0.38606 0.82133,-0.85792 0.70985,-1.84984 0.28992,-3.30612 -1.29022,-4.47437 -0.89069,-0.65851 -1.77696,-1.86373 -1.96949,-2.67827 -0.19253,-0.81453 -0.86717,-2.04979 -1.49921,-2.74502 -1.13268,-1.24592 -1.13406,-1.27508 -0.0963,-2.03389 1.78631,-1.30621 3.26209,-0.91136 5.08858,1.36147 0.94202,1.17222 2.16597,2.27515 2.71987,2.45095 1.21038,0.38416 2.25738,3.57315 2.25738,6.87561 0,4.69918 4.34474,4.59022 5.0992,-0.12788 0.46977,-2.93782 1.57586,-2.47601 2.05263,0.85702 0.20497,1.4329 0.62736,2.85997 0.93865,3.17126 0.3113,0.31129 1.9011,0.58302 3.53291,0.60385 1.68349,0.0215 3.27182,0.34615 3.67176,0.75053 0.75445,0.76283 0.75393,0.76339 -6.31835,6.81502 -4.26504,3.64952 -6.61065,7.40438 -7.064,11.30809 -0.47544,4.09397 0.6462,6.1672 3.77089,6.97003 4.18253,1.07463 5.78326,1.69751 5.95336,2.31659 0.0942,0.34286 0.43803,1.61068 0.76408,2.81739 0.63394,2.34623 4.03166,6.75513 5.20585,6.75513 0.47568,0 0.91516,-1.47212 1.33583,-4.47457 0.3448,-2.46102 1.03196,-5.25556 1.52701,-6.21008 0.84761,-1.63432 0.84292,-1.79867 -0.0804,-2.81893 -0.71991,-0.79549 -1.05651,-2.3019 -1.26652,-5.66828 -0.26071,-4.1787 -0.19549,-4.60452 0.7362,-4.80682 0.93159,-0.20228 7.1606,2.05844 7.80191,2.83158 0.14915,0.17982 0.66613,0.8707 1.14885,1.53531 0.64229,0.8843 1.78878,1.35509 4.27496,1.75548 2.77149,0.44634 4.00849,1.01738 6.71534,3.10002 5.96577,4.59006 8.91623,8.84676 7.81192,11.27046 -0.54363,1.19313 -4.12622,2.94346 -6.02471,2.94346 -1.36598,0 -5.2648,2.05007 -7.01111,3.68657 -1.45634,1.36476 -2.05639,3.90665 -0.92222,3.90665 0.76354,0 3.82784,-1.57168 4.91158,-2.51916 1.20213,-1.05097 2.55808,-0.39002 2.7587,1.34472 0.15624,1.35088 0.34494,1.44563 2.87906,1.44563 1.66009,0 2.88891,0.27872 3.16836,0.71864 0.5504,0.86648 0.77049,0.66273 -2.98867,2.7668 -1.691,0.94648 -3.36409,2.06975 -3.71797,2.49615 -0.46557,0.56098 -0.91895,0.62781 -1.64022,0.24181 -1.97568,-1.05736 -5.48872,1.99437 -6.70412,5.82377 -0.20694,0.65201 -0.83979,1.3326 -1.40633,1.51241 -1.932,0.61319 -5.41407,7.56929 -5.42988,10.8472 -0.0147,3.05268 -0.65956,4.05715 -4.37076,6.80837 -2.04144,1.51339 -4.21056,3.55876 -4.82026,4.54529 -1.53568,2.48479 -1.97897,6.22183 -0.97457,8.21595 0.43851,0.87061 0.94808,2.37615 1.13238,3.34564 0.28065,1.47633 0.17141,1.76271 -0.67239,1.76271 -0.64148,0 -1.83123,-1.26434 -3.27495,-3.48024 -1.716,-2.63382 -2.78473,-3.68721 -4.39429,-4.33123 -3.68328,-1.47376 -6.30226,-1.65494 -8.64587,-0.59811 -1.9805,0.89308 -2.26635,0.89788 -4.32859,0.0727 -2.59301,-1.03751 -3.88719,-1.08881 -7.56579,-0.29989 -2.49857,0.53585 -2.90014,0.85154 -4.90805,3.85842 -2.11558,3.16809 -2.18685,3.42154 -2.18685,7.77709 l 0,4.50227 2.47077,2.17485 c 3.28719,2.8935 6.50137,4.0094 8.784,3.04962 0.92223,-0.38776 1.93491,-1.18735 2.2504,-1.77686 0.82373,-1.53916 3.61945,-2.41909 5.00806,-1.57625 0.89749,0.54474 1.0324,1.03055 0.76432,2.75233 -0.17903,1.14996 -0.69947,2.81396 -1.15651,3.69779 -0.57752,1.1168 -0.68903,2.03284 -0.36557,3.00321 0.42591,1.27772 0.74005,1.40332 3.70011,1.4793 2.12413,0.0545 4.11707,0.5102 5.80481,1.32722 2.80474,1.35776 3.01947,1.96244 1.95662,5.50993 -0.8587,2.8661 -0.27837,4.50696 2.2522,6.36795 1.72681,1.26992 3.0058,1.69191 6.10346,2.01377 4.51671,0.46932 4.33642,0.63607 -1.04518,0.96671 -3.34704,0.20564 -4.45142,0.0175 -8.04918,-1.37162 l 0,0 z"
     id="path3020"
     inkscape:connector-curvature="0" />
  <path
     style="fill:#1a1a1a;stroke:none"
     d="m 253.33306,359.98578 c -0.17896,-0.46635 0.0567,-1.58679 0.5237,-2.48986 0.58543,-1.13209 0.73785,-2.30035 0.49087,-3.76226 -0.31237,-1.84887 -0.54428,-2.1203 -1.81164,-2.1203 -1.13314,0 -2.42698,-1.05569 -5.87165,-4.79087 -2.75231,-2.98444 -5.81629,-5.6471 -8.12603,-7.0617 -5.76943,-3.53349 -6.14848,-3.95222 -6.14848,-6.79224 0,-3.86905 1.32861,-6.07979 4.12423,-6.86252 2.79855,-0.78354 3.31213,-1.95163 3.57007,-8.11979 l 0.17011,-4.0678 3.31828,-2.75202 c 4.85277,-4.02465 6.14412,-4.44653 9.80331,-3.20274 2.5838,0.87827 3.18508,0.91428 4.68408,0.28055 0.94586,-0.39988 4.28247,-0.90027 7.41467,-1.11198 3.1322,-0.21171 6.36058,-0.56599 7.17417,-0.78729 1.08168,-0.29422 2.53942,0.0345 5.42373,1.22314 5.00961,2.06444 10.74764,3.02491 15.21394,2.54661 l 3.44739,-0.36919 2.86473,3.3068 c 2.53325,2.92417 3.09386,3.3063 4.84496,3.3025 2.80096,-0.006 14.32918,-2.47451 16.28845,-3.48769 2.15675,-1.11529 2.88927,-1.06988 4.61301,0.28603 l 1.4404,1.13301 -2.8945,4.15512 c -3.27942,4.70767 -4.75919,7.95134 -5.21851,11.43907 -0.30794,2.33822 -0.48355,2.52422 -6.5537,6.94141 -15.28875,11.12544 -34.29503,19.45486 -52.23093,22.88998 -3.22192,0.61707 -5.94157,1.12195 -6.04366,1.12195 -0.1021,0 -0.33205,-0.38157 -0.511,-0.84792 z"
     id="path3790"
     inkscape:connector-curvature="0" />
  <path
     style="fill:#1a1a1a;stroke:none"
     d="m 265.65833,192.60501 c -1.88861,-1.16143 -2.89197,-2.17447 -3.08882,-3.11865 -0.16501,-0.79147 -0.97981,-1.78195 -1.87728,-2.28206 -1.41804,-0.7902 -1.62547,-1.25477 -1.96158,-4.39332 -0.35082,-3.27591 -0.54516,-3.67154 -2.91766,-5.93955 -3.29064,-3.14571 -6.34212,-5.44897 -9.05028,-6.83114 -2.81321,-1.43579 -4.85911,-3.6808 -5.67155,-6.22354 -0.35742,-1.11865 -0.97713,-2.0339 -1.37712,-2.0339 -0.74124,0 -2.98522,3.18125 -2.98522,4.2321 0,0.31825 -0.24342,1.21888 -0.54093,2.00139 l -0.54094,1.42276 -1.65179,-0.97574 c -0.90849,-0.53666 -2.02227,-1.54115 -2.47507,-2.2322 -0.74053,-1.13021 -0.7317,-1.49623 0.0879,-3.64242 0.50177,-1.31386 0.76363,-2.97397 0.58277,-3.69458 -0.28843,-1.14919 -0.0463,-1.41635 1.98733,-2.19301 3.03838,-1.16037 4.03131,-1.11566 4.44899,0.20034 0.55287,1.74194 3.23077,1.43937 4.68642,-0.5295 2.63506,-3.56411 9.05121,-4.07962 13.95049,-1.12084 1.3836,0.83558 3.85801,1.94982 5.49868,2.4761 3.20262,1.02729 5.8079,2.7917 9.89831,6.70356 3.17395,3.03539 3.45123,5.16146 1.03246,7.91629 -1.47151,1.67597 -1.5583,2.07268 -1.8531,8.47123 -0.35577,7.72184 0.0986,9.12744 3.35609,10.38212 l 1.93913,0.74689 -3.49515,1.18894 c -4.48347,1.52514 -4.65693,1.5136 -7.98212,-0.53127 l 0,0 z"
     id="path3792"
     inkscape:connector-curvature="0" />
  <path
     style="fill:#1a1a1a;stroke:none"
     d="m 332.32204,201.31367 c -0.96949,-0.62088 -1.76271,-1.58454 -1.76271,-2.14148 0,-0.55694 -0.73221,-1.84654 -1.62712,-2.8658 -1.97312,-2.24725 -2.06067,-3.90885 -0.30288,-5.7481 1.11111,-1.16261 1.27523,-1.74887 1.01977,-3.64267 -0.28759,-2.13195 -0.43442,-2.28978 -2.64916,-2.84746 -1.28958,-0.32471 -2.8382,-0.5904 -3.44137,-0.5904 -1.5523,0 -2.21958,-1.59929 -2.21958,-5.31976 0,-3.85843 -1.72363,-7.48952 -4.94105,-10.40905 -1.89486,-1.71943 -2.16181,-2.30716 -2.83295,-6.23729 -0.58162,-3.40594 -1.21525,-5.07092 -2.94664,-7.74279 -1.21313,-1.8721 -2.36957,-4.3738 -2.56986,-5.55933 -0.21062,-1.24665 -0.66766,-2.1555 -1.08394,-2.1555 -0.39588,0 -2.60224,-0.99737 -4.90303,-2.21638 -3.83748,-2.03317 -4.2551,-2.14452 -5.05246,-1.34716 -0.74697,0.74697 -0.76573,1.03491 -0.13337,2.04746 0.65216,1.04428 0.6047,1.28443 -0.41739,2.11207 -1.55656,1.26043 -1.45071,1.92078 0.36613,2.28414 0.83563,0.16713 3.01795,1.64106 4.8496,3.27541 1.83164,1.63435 3.83268,3.131 4.44676,3.3259 1.42272,0.45156 1.43054,1.19324 0.0173,1.64179 -0.60455,0.19188 -1.49444,0.95209 -1.97752,1.68936 -0.73519,1.12204 -1.15268,1.28102 -2.56182,0.97559 -3.01926,-0.65442 -5.53998,-2.51055 -7.04468,-5.18734 -1.69358,-3.01281 -2.60637,-3.72057 -9.64242,-7.47651 -4.68118,-2.49887 -6.96249,-4.44018 -6.96249,-5.92481 0,-0.76376 3.22527,-2.08296 6.08905,-2.49055 1.40999,-0.20068 2.65552,-0.53382 2.76783,-0.74031 0.11231,-0.20649 -0.003,-1.13796 -0.25637,-2.06992 -0.36056,-1.32653 -0.83813,-1.77 -2.19925,-2.04222 -1.26071,-0.25214 -1.8651,-0.1218 -2.19861,0.47414 -0.25297,0.45203 -1.05799,0.82188 -1.78893,0.82188 -1.04142,0 -1.32898,-0.2818 -1.32898,-1.30236 0,-0.91349 -0.56681,-1.63679 -1.8983,-2.42239 -1.04407,-0.61601 -1.89831,-1.35289 -1.89831,-1.63751 0,-0.28462 -3.17942,-2.63528 -7.06538,-5.22369 -6.92469,-4.6125 -7.09209,-4.68871 -8.40678,-3.82729 -0.73777,0.48341 -1.3414,1.09349 -1.3414,1.35573 0,0.96018 -3.28857,1.68877 -4.52809,1.00321 -1.97751,-1.09372 -9.53573,-0.85528 -11.74309,0.37046 -1.39632,0.77537 -2.974,1.05851 -5.96611,1.07072 -4.77601,0.0195 -7.47058,-0.91278 -7.9301,-2.74368 -0.29332,-1.16869 -0.61132,-1.28727 -3.45211,-1.28727 -1.99077,0 -3.35381,0.27084 -3.74694,0.74454 -0.33985,0.40949 -2.13923,0.91082 -3.99862,1.11406 -1.85938,0.20325 -4.29596,0.60982 -5.4146,0.90349 -1.74753,0.45878 -2.0339,0.75085 -2.0339,2.07437 0,1.75817 -1.29409,2.47482 -5.52654,3.0605 -2.89751,0.40096 -4.50786,1.78241 -3.9878,3.42097 0.45204,1.42425 -0.93039,2.1628 -4.99516,2.66861 l -3.11762,0.38794 -0.49624,2.71107 c -0.45959,2.51076 -0.89309,3.08173 -5.86736,7.72801 -3.15248,2.94461 -5.82973,5.01695 -6.48139,5.01695 -1.0663,0 -1.07428,-0.0549 -0.20133,-1.38722 0.49992,-0.76298 0.83308,-2.04433 0.74035,-2.84746 -0.14127,-1.22354 -0.46752,-1.48877 -2.01271,-1.63626 -1.84458,-0.17608 -3.49722,-1.58268 -4.16134,-3.54182 -0.44486,-1.31234 3.13571,-5.05088 5.29079,-5.52422 2.10218,-0.46171 3.71827,-3.6025 3.35751,-6.52513 l -0.26306,-2.13111 3.4914,-1.5388 3.49141,-1.53879 0.28221,-2.80019 c 0.24685,-2.44919 0.1134,-2.97966 -1.06457,-4.23203 l -1.3468,-1.43184 6.68837,-2.21767 c 8.12759,-2.69487 16.01181,-4.59354 24.31548,-5.85562 7.7068,-1.17136 26.53693,-1.31325 34.16949,-0.25748 29.73607,4.11325 55.03032,16.2366 76.2691,36.55523 3.60393,3.4478 4.61461,4.78956 5.55932,7.38054 0.63505,1.74166 1.15463,4.14839 1.15463,5.34827 0,4.00603 0.55435,5.47135 2.5054,6.62249 3.07351,1.81343 2.13786,3.79847 -1.80192,3.82289 -1.66695,0.0103 -3.95772,1.13267 -3.95772,1.93904 0,0.37003 1.09739,1.12407 2.43864,1.67565 3.3015,1.35773 3.18727,2.35882 -0.26915,2.35882 -3.12076,0 -3.23379,0.2766 -1.90417,4.65956 0.44422,1.46436 0.81033,3.47705 0.81356,4.47265 0.006,1.95215 3.09996,8.08889 5.26728,10.44855 l 1.29624,1.41128 -0.93007,3.47008 c -0.8569,3.19709 -2.35126,5.33976 -3.72928,5.34719 -0.2983,0.002 -1.33559,-0.50507 -2.30508,-1.12595 z"
     id="path3794"
     inkscape:connector-curvature="0" />
  <path
     style="fill:#1a1a1a;stroke:none"
     d="m 354.52972,255.22848 c -2.16848,-0.51786 -5.26946,-4.19931 -7.40205,-8.78762 -3.61078,-7.76867 -4.37663,-11.48678 -4.61654,-22.41273 -0.20446,-9.311 -0.26611,-9.75404 -1.92463,-13.83051 -1.86943,-4.59489 -2.11393,-7.38002 -0.82596,-9.40886 0.92651,-1.45948 1.42752,-6.62141 1.45968,-15.03914 l 0.0214,-5.59256 2.51221,0.37673 2.5122,0.37673 -0.39763,-3.19095 c -0.30084,-2.41416 -0.86686,-3.83068 -2.32511,-5.81885 -1.13317,-1.54496 -1.70277,-2.77424 -1.3822,-2.98305 1.2704,-0.82749 1.77857,-2.67364 1.19597,-4.34489 -1.19819,-3.43712 -0.22969,-3.42793 2.03081,0.0193 8.0153,12.22317 14.49821,27.96353 17.60727,42.7501 2.32004,11.03401 3.31011,26.64119 2.30193,36.28694 -0.30225,2.89184 -0.54845,3.46484 -1.76271,4.10257 -0.77626,0.4077 -2.38765,2.33918 -3.58087,4.29219 -2.18959,3.58382 -2.66344,3.86379 -5.42373,3.20461 l 0,0 z"
     id="path3798"
     inkscape:connector-curvature="0" />
  <path
     style="fill:#1a1a1a;stroke:none"
     d="m 244.56339,195.03272 c -1.21727,-0.51066 -3.26814,-1.14199 -4.5575,-1.40295 l -2.34429,-0.47448 1.54729,-1.07227 c 1.6799,-1.16417 1.99352,-1.85862 2.00151,-4.43201 0.004,-1.16456 -0.30475,-2.1756 -0.9976,-3.27075 -0.8613,-1.36143 -1.3349,-1.68283 -3.35576,-2.27735 -4.33055,-1.27401 -5.78335,-2.08984 -7.32767,-4.11488 l -1.45871,-1.91278 0.91564,-0.97653 c 1.32207,-1.41 2.97952,-1.03556 8.98281,2.02936 l 4.99905,2.55222 1.1372,2.33531 c 1.03579,2.12707 1.35947,2.44849 3.63004,3.60464 1.98503,1.01076 2.70524,1.63407 3.53544,3.05975 l 1.04258,1.79041 -0.91669,0.96717 c -0.50418,0.53194 -1.03803,1.6268 -1.18634,2.43304 -0.19596,1.06529 -0.5254,1.56311 -1.20553,1.8217 -1.29962,0.49411 -1.90605,0.40405 -4.44147,-0.6596 z"
     id="path3800"
     inkscape:connector-curvature="0" />
  <path
     style="fill:#1a1a1a;stroke:none"
     d="m 282.79647,176.81692 c -1.11311,-0.54011 -1.95784,-2.1181 -2.27642,-4.25243 -0.25455,-1.70537 -0.21164,-1.83755 0.71036,-2.18809 0.5397,-0.2052 1.26822,-0.81102 1.61894,-1.34628 0.35071,-0.53526 1.29355,-1.1697 2.0952,-1.40988 1.29889,-0.38916 1.59012,-0.34229 2.67561,0.43065 1.10004,0.7833 1.19332,1.00186 0.96267,2.25567 -0.36818,2.00142 -1.50025,4.26821 -2.84812,5.70289 -1.23732,1.31701 -1.65282,1.4312 -2.93824,0.80747 z"
     id="path3802"
     inkscape:connector-curvature="0" />
  <path
     style="fill:#1a1a1a;stroke:none"
     d="m 310.78441,180.21453 c -2.43404,-1.40611 -3.31824,-2.60388 -4.22526,-5.72369 -0.51618,-1.77548 -1.56668,-4.12943 -2.44327,-5.47488 -0.84576,-1.29813 -1.53776,-2.55128 -1.53776,-2.78477 0,-0.94421 1.40614,-0.67562 2.68461,0.51281 0.8002,0.74383 3.49499,2.18115 6.67256,3.55893 2.93164,1.27116 5.49874,2.47967 5.70466,2.68559 0.51344,0.51344 -0.031,4.65136 -0.61171,4.64914 -0.24849,-9.5e-4 -2.09133,-0.77679 -4.0952,-1.72409 -2.00387,-0.9473 -3.85912,-1.72314 -4.12279,-1.72409 -0.2676,-9.6e-4 -0.47939,0.46375 -0.47939,1.05191 0,0.77364 0.50959,1.52214 1.91757,2.81657 2.35345,2.16363 2.65608,3.38132 0.53598,2.15657 z"
     id="path3804"
     inkscape:connector-curvature="0" />
  <path
     style="fill:#1a1a1a;stroke:none"
     d="m 252.52935,293.4703 c -3.13954,-0.80713 -4.33612,-2.05106 -2.39698,-2.49184 5.00039,-1.1366 6.04037,-1.09983 6.04037,0.21358 0,0.48269 0.49541,0.98289 1.39879,1.41234 l 1.39878,0.66495 -1.68642,0.25921 c -2.13578,0.32827 -3.30689,0.31393 -4.75454,-0.0582 z"
     id="path3806"
     inkscape:connector-curvature="0" />
  <path
     style="fill:#1a1a1a;stroke:none"
     d="m 240.32299,290.19202 c -2.61893,-1.99969 -6.15461,-3.54394 -9.3394,-4.07908 -1.54412,-0.25946 -2.80748,-0.61067 -2.80748,-0.78047 0,-0.63159 2.44291,-0.17713 7.70311,1.43302 1.60004,0.48978 4.01619,1.01188 5.36922,1.16024 2.32538,0.25497 5.34336,1.38483 5.33054,1.99563 -0.0158,0.75181 -0.73953,1.14765 -2.52113,1.37888 -1.82497,0.23686 -2.06754,0.16488 -3.73486,-1.10822 l 0,0 z"
     id="path3808"
     inkscape:connector-curvature="0" />
  <path
     style="fill:#1a1a1a;stroke:none"
     d="m 270.56268,223.66009 c -2.16633,-2.43772 -3.10457,-4.25764 -2.84621,-5.52086 0.10528,-0.51476 0.30845,-0.8917 0.45148,-0.83764 0.14304,0.0541 1.98858,1.51847 4.10121,3.25424 3.41482,2.80568 4.71601,4.18072 4.3256,4.57113 -0.0686,0.0686 -1.07996,0.18743 -2.24744,0.26403 l -2.12269,0.13927 -1.66195,-1.87017 z"
     id="path3810"
     inkscape:connector-curvature="0" />
  <path
     sodipodi:type="arc"
     style="fill:none;stroke:#1e1e1e;stroke-opacity:1"
     id="path3812"
     sodipodi:cx="252.35323"
     sodipodi:cy="232.03366"
     sodipodi:rx="143.43481"
     sodipodi:ry="141.13371"
     d="m 395.78804,232.03366 a 143.43481,141.13371 0 1 1 -286.86963,0 143.43481,141.13371 0 1 1 286.86963,0 z"
     transform="matrix(0.96964699,0,0,0.98809629,-13.298666,13.053451)" />
</svg>
